name ./resultDataOpenSim/trcMotMarkerGrf/sub09/grf-02-01.mot
datacolumns 19
datarows 10
range 0.48400000 0.52000000
endheader

                time	     ground_force_vx	     ground_force_vy	     ground_force_vz	     ground_force_px	     ground_force_py	     ground_force_pz	   l_ground_force_vx	   l_ground_force_vy	   l_ground_force_vz	   l_ground_force_px	   l_ground_force_py	   l_ground_force_pz	     ground_torque_x	     ground_torque_y	     ground_torque_z	   l_ground_torque_x	   l_ground_torque_y	   l_ground_torque_z	
          0.48400000	         45.53842319	        458.76518080	         -9.79510528	         -0.68602756	          0.00000000	          0.10359392	          0.00000000	          0.00000000	          0.00000000	          0.00000000	          0.00000000	          0.00000000	          0.00000000	          7.41888946	          0.00000000	          0.00000000	          0.00000000	          0.00000000	
          0.48800000	         47.40521301	        467.74177421	        -10.86438492	         -0.68424805	          0.00000000	          0.10392187	          0.00000000	          0.00000000	          0.00000000	          0.00000000	          0.00000000	          0.00000000	          0.00000000	          7.68645757	          0.00000000	          0.00000000	          0.00000000	          0.00000000	
          0.49200000	         49.35485368	        477.35711984	        -12.74010613	         -0.68232379	          0.00000000	          0.10432113	          0.00000000	          0.00000000	          0.00000000	          0.00000000	          0.00000000	          0.00000000	          0.00000000	          7.81803562	          0.00000000	          0.00000000	          0.00000000	          0.00000000	
          0.49600000	         51.53456524	        487.62273726	        -15.38561030	         -0.68028979	          0.00000000	          0.10478714	          0.00000000	          0.00000000	          0.00000000	          0.00000000	          0.00000000	          0.00000000	          0.00000000	          7.80739286	          0.00000000	          0.00000000	          0.00000000	          0.00000000	
          0.50000000	         53.97060570	        498.51526118	        -18.64681468	         -0.67813934	          0.00000000	          0.10530623	          0.00000000	          0.00000000	          0.00000000	          0.00000000	          0.00000000	          0.00000000	          0.00000000	          7.66924985	          0.00000000	          0.00000000	          0.00000000	          0.00000000	
          0.50400000	         56.57413734	        510.00508234	        -22.28245604	         -0.67586909	          0.00000000	          0.10584372	          0.00000000	          0.00000000	          0.00000000	          0.00000000	          0.00000000	          0.00000000	          0.00000000	          7.43530704	          0.00000000	          0.00000000	          0.00000000	          0.00000000	
          0.50800000	         59.17787442	        522.07224630	        -26.01410294	         -0.67350607	          0.00000000	          0.10635123	          0.00000000	          0.00000000	          0.00000000	          0.00000000	          0.00000000	          0.00000000	          0.00000000	          7.14655130	          0.00000000	          0.00000000	          0.00000000	          0.00000000	
          0.51200000	         61.59002290	        534.70535724	        -29.58017893	         -0.67107163	          0.00000000	          0.10679316	          0.00000000	          0.00000000	          0.00000000	          0.00000000	          0.00000000	          0.00000000	          0.00000000	          6.84392861	          0.00000000	          0.00000000	          0.00000000	          0.00000000	
          0.51600000	         63.65795526	        547.88990759	        -32.78177946	         -0.66860243	          0.00000000	          0.10713855	          0.00000000	          0.00000000	          0.00000000	          0.00000000	          0.00000000	          0.00000000	          0.00000000	          6.55985578	          0.00000000	          0.00000000	          0.00000000	          0.00000000	
          0.52000000	         65.32485173	        561.58873170	        -35.50738045	         -0.66613539	          0.00000000	          0.10736297	          0.00000000	          0.00000000	          0.00000000	          0.00000000	          0.00000000	          0.00000000	          0.00000000	          6.31265399	          0.00000000	          0.00000000	          0.00000000	          0.00000000	
